# The Great Editor v0.0.1
mtllib floor_1.mtl
o floor_1
v 1.654640220603874 -3.6678800466797434 0
v 1.654640220603874 -3.6678800466797434 -0.1
v 10.785525987736548 -3.6841109493176516 0
v 10.785525987736548 -3.6841109493176516 -0.1
v 10.76935587499616 -7.5857889418603035 0
v 10.76935587499616 -7.5857889418603035 -0.1
v 1.557497964366503 -7.666700295459765 0
v 1.557497964366503 -7.666700295459765 -0.1
vt 1.654640220603874 -3.6678800466797434 0
vt 10.785525987736548 -3.6841109493176516 0
vt 10.76935587499616 -7.5857889418603035 0
vt 1.557497964366503 -7.666700295459765 0
vn 0 0 1
vn 0 0 -1
usemtl floor_1
s off
f 1/1/1 7/4/1 5/3/1
f 6/3/2 8/4/2 2/1/2
f 1/1/1 5/3/1 3/2/1
f 4/2/2 6/3/2 2/1/2
