# The Great Editor v0.0.1
mtllib floor_1.mtl
o floor_1
v 2.96452421441119 -5.710333449664479 0
v 2.96452421441119 -5.710333449664479 -0.1
v 28.326980076165647 -5.739941048895144 0
v 28.326980076165647 -5.739941048895144 -0.1
v 33.33625045798325 -9.08913481761411 0
v 33.33625045798325 -9.08913481761411 -0.1
v 24.573848890069886 -22.277450194239183 0
v 24.573848890069886 -22.277450194239183 -0.1
v 2.9691933834830184 -22.41228904061323 0
v 2.9691933834830184 -22.41228904061323 -0.1
v 18.856023052825034 -15.68626050487153 0
v 18.856023052825034 -15.68626050487153 -0.1
v 18.85005085982618 -11.95881578118901 0
v 18.85005085982618 -11.95881578118901 -0.1
v 21.672388620719286 -11.963376364933586 0
v 21.672388620719286 -11.963376364933586 -0.1
v 23.069375050923114 -12.877435584703099 0
v 23.069375050923114 -12.877435584703099 -0.1
v 21.245720674837777 -15.682279042872295 0
v 21.245720674837777 -15.682279042872295 -0.1
vt 2.96452421441119 -5.710333449664479 0
vt 28.326980076165647 -5.739941048895144 0
vt 33.33625045798325 -9.08913481761411 0
vt 24.573848890069886 -22.277450194239183 0
vt 2.9691933834830184 -22.41228904061323 0
vt 18.856023052825034 -15.68626050487153 0
vt 18.85005085982618 -11.95881578118901 0
vt 21.672388620719286 -11.963376364933586 0
vt 23.069375050923114 -12.877435584703099 0
vt 21.245720674837777 -15.682279042872295 0
vn 0 0 1
vn 0 0 -1
usemtl floor_1
s off
f 1/1/1 9/5/1 11/6/1
f 12/6/2 10/5/2 2/1/2
f 1/1/1 11/6/1 13/7/1
f 14/7/2 12/6/2 2/1/2
f 1/1/1 13/7/1 3/2/1
f 4/2/2 14/7/2 2/1/2
f 3/2/1 13/7/1 15/8/1
f 16/8/2 14/7/2 4/2/2
f 3/2/1 15/8/1 17/9/1
f 18/9/2 16/8/2 4/2/2
f 3/2/1 17/9/1 5/3/1
f 6/3/2 18/9/2 4/2/2
f 5/3/1 17/9/1 7/4/1
f 8/4/2 18/9/2 6/3/2
f 7/4/1 17/9/1 19/10/1
f 20/10/2 18/9/2 8/4/2
f 7/4/1 19/10/1 11/6/1
f 12/6/2 20/10/2 8/4/2
f 7/4/1 11/6/1 9/5/1
f 10/5/2 12/6/2 8/4/2
